<?xml version="1.0" encoding="UTF-8"?>
<svg version="1.1" xmlns="http://www.w3.org/2000/svg" width="512" height="512">
<path d="M0 0 C17.84900123 16.05919753 32.63176745 34.65626102 40.84375 57.55859375 C40.84375 58.54859375 40.84375 59.53859375 40.84375 60.55859375 C120.37375 60.55859375 199.90375 60.55859375 281.84375 60.55859375 C281.84375 91.57859375 281.84375 122.59859375 281.84375 154.55859375 C266.66375 154.55859375 251.48375 154.55859375 235.84375 154.55859375 C235.84375 185.24859375 235.84375 215.93859375 235.84375 247.55859375 C204.82375 247.55859375 173.80375 247.55859375 141.84375 247.55859375 C141.84375 216.86859375 141.84375 186.17859375 141.84375 154.55859375 C108.51375 154.55859375 75.18375 154.55859375 40.84375 154.55859375 C40.51375 156.20859375 40.18375 157.85859375 39.84375 159.55859375 C30.10822602 184.96921792 11.81779027 208.78069757 -11.15625 223.55859375 C-11.98479492 224.09709961 -11.98479492 224.09709961 -12.83007812 224.64648438 C-44.57345571 245.10023042 -82.79581276 253.03308472 -119.984375 245.0546875 C-156.97218797 236.60603238 -188.99491019 214.89804906 -209.32470703 182.70849609 C-223.4242163 159.65730888 -230.38355457 135.18115265 -230.40625 108.18359375 C-230.40692474 107.46550537 -230.40759949 106.74741699 -230.40829468 106.00756836 C-230.35175907 68.17203442 -215.24353069 34.66331908 -189.15625 7.55859375 C-188.30353516 6.61113281 -188.30353516 6.61113281 -187.43359375 5.64453125 C-170.19581042 -12.95993056 -142.78425813 -25.91720034 -118.15625 -30.44140625 C-117.11984375 -30.64378906 -116.0834375 -30.84617187 -115.015625 -31.0546875 C-74.16286672 -37.78714879 -31.63355881 -26.84200505 0 0 Z M-118.15625 70.55859375 C-118.72988281 70.96078125 -119.30351563 71.36296875 -119.89453125 71.77734375 C-128.74609698 78.54753356 -132.72744117 88.27216725 -136.15625 98.55859375 C-137.14947524 112.26510203 -135.94403162 124.29924854 -127.15625 135.55859375 C-126.455 136.52796875 -125.75375 137.49734375 -125.03125 138.49609375 C-117.69010279 147.02346292 -106.33916018 152.60685671 -95.15625 153.55859375 C-81.57566436 154.54091459 -69.96289715 150.5357446 -59.53125 141.93359375 C-49.75139234 132.85473988 -44.95834716 121.76042631 -44.15625 108.609375 C-44.15625 95.6933169 -49.4496286 83.82846655 -58.15625 74.390625 C-66.94028798 66.03010314 -77.83908099 61.71245777 -89.90625 61.24609375 C-100.51206024 61.52606079 -109.54437533 64.40949562 -118.15625 70.55859375 Z " fill="#000000" transform="translate(230.15625,148.44140625)"/>
</svg>
